<svg xmlns="http://www.w3.org/2000/svg" viewBox="0 0 488 452"><defs><style>.cls-1{fill:#fff;}</style></defs><title>Logo FM 2017</title><g id="Calque_2" data-name="Calque 2"><g id="Calque_1-2" data-name="Calque 1"><path class="cls-1" d="M463.83,452H24.17A24.2,24.2,0,0,1,0,427.83V24.17A24.2,24.2,0,0,1,24.17,0H463.83A24.2,24.2,0,0,1,488,24.17V427.83A24.2,24.2,0,0,1,463.83,452ZM24.17,20A4.18,4.18,0,0,0,20,24.17V427.83A4.18,4.18,0,0,0,24.17,432H463.83a4.18,4.18,0,0,0,4.17-4.17V24.17A4.18,4.18,0,0,0,463.83,20Z"/><path class="cls-1" d="M444,370H404V202.28L296.15,310.14a22.86,22.86,0,0,1-32.29,0L156,202.28V298H116V160.84a22.83,22.83,0,0,1,39-16.15l125,125,125-125a22.83,22.83,0,0,1,39,16.15Z"/><polygon class="cls-1" points="84 298 44 298 44 62 253 62 253 102 84 102 84 298"/></g></g></svg>