<svg xmlns="http://www.w3.org/2000/svg" viewBox="0 0 540 452"><defs><style>.cls-1{fill:#fff;}</style></defs><title>logo2017</title><g id="Calque_2" data-name="Calque 2"><g id="Calque_1-2" data-name="Calque 1"><path class="cls-1" d="M513.25,452H26.75C12,452,0,441.16,0,427.83V24.17C0,10.84,12,0,26.75,0h486.5C528,0,540,10.84,540,24.17V427.83C540,441.16,528,452,513.25,452ZM26.75,20a4.42,4.42,0,0,0-4.62,4.17V427.83A4.42,4.42,0,0,0,26.75,432h486.5a4.42,4.42,0,0,0,4.62-4.17V24.17A4.42,4.42,0,0,0,513.25,20Z"/><path class="cls-1" d="M470,379H430V211.28L322.15,319.14a22.86,22.86,0,0,1-32.29,0L182,211.28V307H142V169.84a22.83,22.83,0,0,1,39-16.15l125,125,125-125a22.83,22.83,0,0,1,39,16.15Z"/><polygon class="cls-1" points="110 307 70 307 70 71 279 71 279 111 110 111 110 307"/></g></g></svg>